<?xml version="1.0" standalone="no"?>
<!DOCTYPE svg PUBLIC "-//W3C//DTD SVG 20010904//EN"
 "http://www.w3.org/TR/2001/REC-SVG-20010904/DTD/svg10.dtd">
<svg version="1.0" xmlns="http://www.w3.org/2000/svg"
 width="32.000000pt" height="32.000000pt" viewBox="0 0 32.000000 32.000000"
 preserveAspectRatio="xMidYMid meet">

<g transform="translate(0.000000,32.000000) scale(0.100000,-0.100000)"
fill="#000000" stroke="none">
<path d="M188 303 c26 -10 9 -93 -20 -93 -15 0 -8 43 10 64 17 21 17 21 -5 2
-13 -11 -23 -30 -23 -43 0 -14 -4 -21 -10 -18 -16 10 -11 44 10 65 11 11 16
20 11 20 -14 0 -41 -41 -41 -62 0 -9 9 -23 20 -31 16 -11 19 -24 17 -83 -1
-38 3 -69 7 -69 5 0 8 32 7 70 -2 61 1 74 18 89 28 25 30 96 4 95 -11 0 -13
-3 -5 -6z"/>
<path d="M97 158 c9 -10 22 -18 30 -18 9 0 8 5 -4 18 -24 25 -49 25 -26 0z"/>
<path d="M260 141 c0 -5 9 -7 20 -4 11 3 20 7 20 9 0 2 -9 4 -20 4 -11 0 -20
-4 -20 -9z"/>
<path d="M60 130 c19 -4 28 -8 20 -9 -9 -1 -4 -8 13 -17 16 -9 26 -18 23 -21
-3 -3 -23 4 -46 16 -48 25 -54 9 -7 -19 36 -22 77 -26 77 -7 -1 20 -24 44 -38
39 -7 -2 -11 2 -10 10 2 9 -9 14 -32 15 l-35 1 35 -8z"/>
<path d="M205 117 c-8 -12 -15 -27 -15 -34 0 -21 58 -15 80 7 35 35 22 42 -27
15 -48 -27 -48 -27 -20 -2 23 20 26 25 13 30 -9 4 -21 -2 -31 -16z"/>
</g>
</svg>
